<svg xmlns="http://www.w3.org/2000/svg" height="16px" width="16px" viewBox="0 0 16 16" role="img" aria-label="PlusCircleIcon" class="sc-fQpRED bUGbIN ui-icon"><path fill="#939da7" fill-rule="evenodd" d="M8 2.083a5.917 5.917 0 1 0 0 11.834A5.917 5.917 0 0 0 8 2.083M.583 8a7.417 7.417 0 1 1 14.833 0A7.417 7.417 0 0 1 .583 8M8 4.583a.75.75 0 0 1 .75.75V7.25h1.916a.75.75 0 1 1 0 1.5H8.75v1.917a.75.75 0 0 1-1.5 0V8.75H5.333a.75.75 0 1 1 0-1.5H7.25V5.333a.75.75 0 0 1 .75-.75" clip-rule="evenodd"/></svg>