<svg xmlns="http://www.w3.org/2000/svg" height="16px" width="16px" viewBox="0 0 16 16" role="img" aria-label="UserIcon" class="sc-fQpRED sprYa ui-icon"><path fill="currentColor" fill-rule="evenodd" d="M8 2.75a2.25 2.25 0 1 0 0 4.5 2.25 2.25 0 0 0 0-4.5M4.25 5a3.75 3.75 0 1 1 7.5 0 3.75 3.75 0 0 1-7.5 0m1.959 4.583H9.79c.81 0 1.38 0 1.867.147a3.42 3.42 0 0 1 2.278 2.278c.148.487.148 1.058.147 1.867V14a.75.75 0 1 1-1.5 0c0-.985-.008-1.311-.082-1.556a1.92 1.92 0 0 0-1.278-1.278c-.245-.075-.572-.083-1.556-.083H6.333c-.985 0-1.31.008-1.556.083a1.92 1.92 0 0 0-1.278 1.278c-.074.245-.082.571-.082 1.556a.75.75 0 0 1-1.5 0v-.125c0-.809-.001-1.38.147-1.867A3.42 3.42 0 0 1 4.34 9.73c.488-.147 1.058-.147 1.868-.147" clip-rule="evenodd"/></svg>